<?xml version="1.0" encoding="iso-8859-1"?>
<!-- Generator: Adobe Illustrator 19.0.0, SVG Export Plug-In . SVG Version: 6.00 Build 0)  -->
<svg version="1.1" id="Layer_1" xmlns="http://www.w3.org/2000/svg" xmlns:xlink="http://www.w3.org/1999/xlink" x="0px" y="0px"
	 viewBox="0 0 512 512" style="enable-background:new 0 0 512 512;" xml:space="preserve">
<circle style="fill:#FFD55C;" cx="256" cy="256" r="256"/>
<rect x="198.458" y="181.942" style="fill:#CCCBCA;" width="19.017" height="10.574"/>
<path style="fill:#FF6D3B;" d="M217.481,233.73v161.425c0,5.246-4.264,9.49-9.51,9.49c-5.246,0-9.507-4.245-9.507-9.49V233.73
	H217.481z"/>
<path style="fill:#F15424;" d="M217.481,395.155V233.73h-9.51v170.915C213.217,404.645,217.481,400.401,217.481,395.155z"/>
<path style="fill:#FFFFFF;" d="M234.579,164.864L234.579,164.864L234.579,164.864l-26.607-57.456l-26.601,57.456l0,0l0,0h-0.007
	h0.02c9.418,0.007,17.051,7.627,17.081,17.045v0.046h19.017v-0.046c0.026-9.421,7.657-17.038,17.071-17.045H234.579L234.579,164.864
	z"/>
<rect x="206.914" y="107.411" style="fill:#131A26;" width="2.134" height="35.956"/>
<path style="fill:#3E4959;" d="M219.423,192.529c0.225,0,0.453,0.083,0.621,0.258c0.168,0.168,0.254,0.393,0.254,0.621v39.444
	c0,0.218-0.086,0.453-0.254,0.624c-0.172,0.162-0.396,0.251-0.621,0.251h-22.911c-0.218,0-0.453-0.089-0.621-0.251
	c-0.168-0.175-0.251-0.406-0.251-0.624v-39.444c0-0.225,0.083-0.453,0.251-0.621c0.168-0.175,0.4-0.258,0.621-0.258H219.423z"/>
<rect x="195.65" y="193.404" style="fill:#131A26;" width="24.659" height="39.444"/>
<g>
	<rect x="218.839" y="193.404" style="fill:#3E4959;" width="0.727" height="39.444"/>
	<rect x="217.108" y="193.404" style="fill:#3E4959;" width="0.73" height="39.444"/>
	<rect x="215.37" y="193.404" style="fill:#3E4959;" width="0.723" height="39.444"/>
	<rect x="213.653" y="193.404" style="fill:#3E4959;" width="0.727" height="39.444"/>
	<rect x="211.935" y="193.404" style="fill:#3E4959;" width="0.723" height="39.444"/>
	<rect x="210.184" y="193.404" style="fill:#3E4959;" width="0.727" height="39.444"/>
	<rect x="208.467" y="193.404" style="fill:#3E4959;" width="0.73" height="39.444"/>
	<rect x="206.749" y="193.404" style="fill:#3E4959;" width="0.723" height="39.444"/>
	<rect x="204.998" y="193.404" style="fill:#3E4959;" width="0.723" height="39.444"/>
	<rect x="203.281" y="193.404" style="fill:#3E4959;" width="0.73" height="39.444"/>
	<rect x="201.563" y="193.404" style="fill:#3E4959;" width="0.73" height="39.444"/>
	<rect x="199.812" y="193.404" style="fill:#3E4959;" width="0.73" height="39.444"/>
	<rect x="198.108" y="193.404" style="fill:#3E4959;" width="0.723" height="39.444"/>
	<rect x="196.377" y="193.404" style="fill:#3E4959;" width="0.723" height="39.444"/>
</g>
<polygon style="fill:#FFFFFF;" points="306.876,288.289 344.147,223.741 381.41,288.289 "/>
<path style="fill:#FF6D3B;" d="M381.77,115.884c-12.678-16.463-37.627-6.748-37.627,9.963c0-16.711-24.949-26.426-37.627-9.963
	c-13.101,17.012-0.188,46.82,37.627,63.941C381.959,162.704,394.868,132.895,381.77,115.884z"/>
<rect x="306.87" y="330.124" style="fill:#242D3C;" width="74.531" height="74.534"/>
<polygon style="fill:#FFFFFF;" points="273.312,129.685 262.18,107.408 251.045,129.685 "/>
<rect x="251.045" y="129.685" style="fill:#242D3C;" width="22.267" height="248.403"/>
<rect x="251.045" y="129.685" style="fill:#3E4959;" width="11.132" height="248.403"/>
<polygon style="fill:#131A26;" points="266.531,116.122 262.18,107.408 257.804,116.122 "/>
<rect x="251.045" y="378.087" style="fill:#FFFFFF;" width="22.267" height="7.865"/>
<rect x="251.045" y="385.949" style="fill:#FF6D3B;" width="22.267" height="18.683"/>
<rect x="125.265" y="107.355" style="fill:#FFFFFF;" width="39.629" height="297.29"/>
<g>
	<rect x="125.265" y="120.845" style="fill:#242D3C;" width="7.36" height="2.768"/>
	<rect x="125.265" y="135.697" style="fill:#242D3C;" width="7.36" height="2.768"/>
	<rect x="125.265" y="150.574" style="fill:#242D3C;" width="7.36" height="2.768"/>
	<rect x="125.268" y="165.426" style="fill:#242D3C;" width="7.356" height="2.768"/>
	<rect x="125.265" y="180.29" style="fill:#242D3C;" width="7.36" height="2.768"/>
	<rect x="125.265" y="195.155" style="fill:#242D3C;" width="7.36" height="2.768"/>
	<rect x="125.265" y="210.019" style="fill:#242D3C;" width="7.36" height="2.768"/>
	<rect x="125.265" y="224.884" style="fill:#242D3C;" width="7.36" height="2.768"/>
	<rect x="125.265" y="239.748" style="fill:#242D3C;" width="7.36" height="2.768"/>
	<rect x="125.265" y="254.613" style="fill:#242D3C;" width="7.36" height="2.768"/>
	<rect x="125.265" y="269.477" style="fill:#242D3C;" width="7.36" height="2.768"/>
	<rect x="125.265" y="284.342" style="fill:#242D3C;" width="7.36" height="2.768"/>
	<rect x="125.265" y="299.206" style="fill:#242D3C;" width="7.36" height="2.768"/>
	<rect x="125.265" y="314.071" style="fill:#242D3C;" width="7.36" height="2.768"/>
	<rect x="125.265" y="328.935" style="fill:#242D3C;" width="7.36" height="2.768"/>
	<rect x="125.265" y="343.8" style="fill:#242D3C;" width="7.36" height="2.768"/>
	<rect x="125.265" y="358.664" style="fill:#242D3C;" width="7.36" height="2.768"/>
	<rect x="125.265" y="373.529" style="fill:#242D3C;" width="7.36" height="2.768"/>
	<rect x="125.265" y="388.393" style="fill:#242D3C;" width="7.36" height="2.768"/>
</g>
<g>
</g>
<g>
</g>
<g>
</g>
<g>
</g>
<g>
</g>
<g>
</g>
<g>
</g>
<g>
</g>
<g>
</g>
<g>
</g>
<g>
</g>
<g>
</g>
<g>
</g>
<g>
</g>
<g>
</g>
</svg>
