<?xml version="1.0" encoding="iso-8859-1"?>
<!-- Generator: Adobe Illustrator 16.0.0, SVG Export Plug-In . SVG Version: 6.00 Build 0)  -->
<!DOCTYPE svg PUBLIC "-//W3C//DTD SVG 1.1//EN" "http://www.w3.org/Graphics/SVG/1.1/DTD/svg11.dtd">
<svg xmlns="http://www.w3.org/2000/svg" xmlns:xlink="http://www.w3.org/1999/xlink" version="1.1" id="Capa_1" x="0px" y="0px" width="512px" height="512px" viewBox="0 0 412.351 412.351" style="enable-background:new 0 0 412.351 412.351;" xml:space="preserve">
<g>
	<g>
		<g id="Layer_5_68_">
			<g>
				<path d="M126.192,354.953c0,4.438-3.857,9.44-8.571,11.119L8.572,404.861C3.856,406.539,0,404.279,0,399.84V57.399      c0-4.438,3.856-9.441,8.572-11.119L117.621,7.49c4.714-1.677,8.571,0.582,8.571,5.021V354.953z" fill="#E3B505"/>
				<path d="M269.271,399.841c0,4.438-3.857,6.697-8.572,5.021l-109.048-38.79c-4.715-1.678-8.571-6.682-8.571-11.117V12.51      c0-4.438,3.856-6.697,8.571-5.021l109.048,38.79c4.715,1.678,8.572,6.682,8.572,11.119V399.841z" fill="#E3B505"/>
				<path d="M412.351,354.953c0,4.438-3.854,9.44-8.571,11.119L294.73,404.861c-4.715,1.678-8.571-0.582-8.571-5.021V57.399      c0-4.438,3.856-9.441,8.571-11.119L403.779,7.49c4.717-1.677,8.571,0.582,8.571,5.021V354.953z" fill="#E3B505"/>
			</g>
		</g>
	</g>
</g>
<g>
</g>
<g>
</g>
<g>
</g>
<g>
</g>
<g>
</g>
<g>
</g>
<g>
</g>
<g>
</g>
<g>
</g>
<g>
</g>
<g>
</g>
<g>
</g>
<g>
</g>
<g>
</g>
<g>
</g>
</svg>
