<?xml version="1.0" encoding="iso-8859-1"?>
<!-- Generator: Adobe Illustrator 19.0.0, SVG Export Plug-In . SVG Version: 6.00 Build 0)  -->
<svg version="1.1" id="Layer_1" xmlns="http://www.w3.org/2000/svg" xmlns:xlink="http://www.w3.org/1999/xlink" x="0px" y="0px"
	 viewBox="0 0 512 512" style="enable-background:new 0 0 512 512;" xml:space="preserve">
<circle style="fill:#3A99D7;" cx="256" cy="255.942" r="255.942"/>
<path style="fill:#2682BF;" d="M162.948,201.979l-56.852,46.081l74.285,74.285L70.896,335.004l177.107,176.884
	c2.665,0.111,5.33,0.111,7.995,0.111c125.918,0,230.517-90.941,251.947-210.641L378.807,172.222
	c-23.985-19.654-127.473-115.702-245.618,0l29.87,29.87L162.948,201.979z"/>
<path style="fill:#EDEDED;" d="M344.385,280.484h2.332l13.435-7.329l2.221-8.55c-3.22-3.22-6.441-8.661-9.55-15.434
	c-0.222,0-0.444,0.111-0.777,0.111c-3.553,0-7.107-3.887-7.884-8.661c-0.666-3.776,0.666-6.885,2.887-8.106
	c-2.998-15.323-4.997-38.752,21.319-44.527c15.767-3.442,21.431,8.661,22.097,9.994c9.55-5.33,15.656,2.665,17.211,6.885
	c2.776,7.662,1.888,21.986,0.444,28.315c1.555,1.555,2.332,4.22,1.888,7.329c-0.777,4.664-4.22,8.439-7.662,8.661
	c-2.776,6.218-6.552,11.437-10.438,15.323l2.221,8.55h0.222l12.991,7.329h2.443c17.211,0,31.312,13.546,31.312,29.981v24.318
	H313.072v-24.319c0-16.545,14.102-29.981,31.312-29.981v0.111H344.385z"/>
<path style="fill:#E3E3E3;" d="M377.141,187.656c9.217,1.555,12.88,9.328,13.435,10.438c9.55-5.33,15.656,2.665,17.211,6.885
	c2.776,7.662,1.888,21.986,0.444,28.315c1.555,1.555,2.332,4.22,1.888,7.329c-0.777,4.664-4.22,8.439-7.662,8.661
	c-2.776,6.218-6.552,11.437-10.438,15.323l2.221,8.55h0.222l12.991,7.329h2.443c17.211,0,31.312,13.546,31.312,29.981v24.318H377.25
	v-147.13H377.141z"/>
<path style="fill:#EFEFF0;" d="M102.098,280.484h2.332l13.435-7.329l2.221-8.55c-3.22-3.22-6.441-8.661-9.55-15.434
	c-0.222,0-0.444,0.111-0.777,0.111c-3.553,0-6.996-3.887-7.884-8.661c-0.666-3.776,0.666-6.885,2.887-8.106
	c-2.998-15.323-4.997-38.752,21.319-44.527c15.767-3.442,21.431,8.661,22.097,9.994c9.55-5.33,15.656,2.665,17.211,6.885
	c2.776,7.662,1.888,21.986,0.444,28.315c1.555,1.555,2.332,4.22,1.888,7.329c-0.777,4.664-4.22,8.439-7.662,8.661
	c-2.776,6.218-6.552,11.437-10.437,15.323l2.221,8.55h0.222l12.991,7.329h2.443c17.211,0,31.312,13.546,31.312,29.981v24.318H70.785
	v-24.319c0-16.545,14.102-29.981,31.312-29.981C102.098,280.373,102.098,280.484,102.098,280.484z"/>
<path style="fill:#E3E3E3;" d="M134.855,187.656c9.217,1.555,12.88,9.328,13.435,10.438c9.55-5.33,15.656,2.665,17.211,6.885
	c2.776,7.662,1.888,21.986,0.444,28.315c1.555,1.555,2.332,4.22,1.888,7.329c-0.777,4.664-4.22,8.439-7.662,8.661
	c-2.776,6.218-6.552,11.437-10.437,15.323l2.221,8.55h0.222l12.991,7.329h2.443c17.211,0,31.312,13.546,31.312,29.981v24.318
	h-63.958v-147.13H134.855z"/>
<path style="fill:#FFD630;" d="M218.245,278.263h2.665l15.434-8.439l2.554-9.883c-3.664-3.775-7.44-9.994-10.992-17.766
	c-0.333,0-0.555,0.111-0.888,0.111c-4.109,0-8.106-4.442-9.106-9.994c-0.666-4.331,0.666-7.995,3.331-9.328
	c-3.442-17.655-5.774-44.749,24.651-51.41c18.21-3.998,24.762,10.105,25.539,11.548c10.992-6.218,18.099,3.109,19.876,7.995
	c3.22,8.884,2.221,25.428,0.555,32.756c1.777,1.777,2.776,4.886,2.11,8.439c-0.888,5.441-4.886,9.772-8.884,9.994
	c-3.22,7.107-7.551,13.213-11.992,17.655l2.554,9.883h0.222l14.99,8.439h2.887c19.876,0,36.087,15.656,36.087,34.644V341H182.047
	v-28.093c0-19.099,16.211-34.644,36.087-34.644H218.245z"/>
<path style="fill:#FACD1B;" d="M255.998,171.111c10.659,1.777,14.879,10.77,15.545,11.992c10.992-6.218,18.099,3.109,19.876,7.995
	c3.22,8.884,2.221,25.428,0.555,32.756c1.777,1.777,2.776,4.886,2.11,8.439c-0.888,5.441-4.886,9.772-8.884,9.994
	c-3.22,7.107-7.551,13.213-11.992,17.655l2.554,9.883h0.222l15.101,8.439h2.887c19.876,0,36.087,15.656,36.087,34.644v28.093
	h-73.951V171.111H255.998z"/>
<path style="fill:#FFD630;" d="M255.998,109.151c41.751,0,79.615,16.989,107.042,44.305c5.774,5.774,10.992,11.992,15.767,18.543
	h-22.319c-1.888-2.11-3.775-4.22-5.885-6.218c-24.207-24.207-57.74-39.197-94.716-39.197s-70.51,14.99-94.716,39.197
	c-1.999,1.999-3.998,4.109-5.885,6.218h-22.319c4.775-6.552,10.105-12.769,15.767-18.543
	c27.427-27.427,65.291-44.305,107.042-44.305H255.998z M378.807,348.995c-4.775,6.552-10.104,12.769-15.767,18.543
	c-27.427,27.427-65.291,44.305-107.042,44.305s-79.615-16.989-107.042-44.305c-5.774-5.774-10.992-11.992-15.767-18.543h22.319
	c1.888,2.11,3.776,4.22,5.885,6.218c24.207,24.207,57.74,39.197,94.716,39.197s70.51-14.99,94.716-39.197
	c1.999-1.999,3.998-4.109,5.885-6.218h22.319H378.807z"/>
<g>
</g>
<g>
</g>
<g>
</g>
<g>
</g>
<g>
</g>
<g>
</g>
<g>
</g>
<g>
</g>
<g>
</g>
<g>
</g>
<g>
</g>
<g>
</g>
<g>
</g>
<g>
</g>
<g>
</g>
</svg>
