<?xml version="1.0" encoding="iso-8859-1"?>
<!-- Generator: Adobe Illustrator 19.0.0, SVG Export Plug-In . SVG Version: 6.00 Build 0)  -->
<svg version="1.1" id="Layer_1" xmlns="http://www.w3.org/2000/svg" xmlns:xlink="http://www.w3.org/1999/xlink" x="0px" y="0px"
	 viewBox="0 0 504.014 504.014" style="enable-background:new 0 0 504.014 504.014;" xml:space="preserve">
<g transform="translate(1 1)">
	<path style="fill:#AE938D;" d="M71.853,420.82c15.36-5.12,34.987-7.68,59.733-7.68h25.6l59.733,51.2l34.133-17.067v51.2H140.12
		v-17.067h-51.2v17.067H3.587l8.533-25.6c3.413-11.093,11.093-23.893,25.6-34.987C46.253,431.06,57.347,425.087,71.853,420.82
		L71.853,420.82z"/>
	<path style="fill:#E4F2DE;" d="M251.053,447.274L216.92,464.34l-59.733-51.2l34.133-17.067L251.053,447.274z M361.987,498.474h51.2
		v-17.067h-51.2V498.474z M88.92,498.474h51.2v-17.067h-51.2V498.474z M344.92,413.14l-59.733,51.2l-34.133-17.067l59.733-51.2
		L344.92,413.14z"/>
	<path style="fill:#AAB1BA;" d="M413.187,165.674v25.6l0,0h-34.133c0,0-42.667-34.133-128-34.133s-128,34.133-128,34.133h-33.28
		v-25.6H88.92c0-89.6,72.533-162.133,162.133-162.133S413.187,76.074,413.187,165.674L413.187,165.674z"/>
	<path style="fill:#FF7474;" d="M71.853,225.407V420.82c-14.507,4.267-25.6,10.24-34.133,17.067V310.74
		c0-8.533,17.067-25.6,17.067-34.133v-51.2H71.853z"/>
	<path style="fill:#AE938D;" d="M489.987,472.874l8.533,25.6h-85.333v-17.067h-51.2v17.067H251.053v-51.2l34.133,17.067l59.733-51.2
		h34.133C464.387,413.14,482.307,448.98,489.987,472.874"/>
	<polygon style="fill:#FF7474;" points="259.587,88.874 276.653,88.874 263,99.967 268.12,117.033 251.053,109.353 233.987,117.033 
		239.96,99.967 225.453,88.874 242.52,88.874 251.053,71.807 	"/>
	<path style="fill:#FFD0A1;" d="M379.053,191.274v34.133c0,9.387-7.68,17.067-17.067,17.067c0,0-8.533,68.267-25.6,93.867
		c-10.24,16.213-25.6,42.667-85.333,42.667s-75.093-26.453-85.333-42.667c-17.067-25.6-25.6-93.867-25.6-93.867
		c-9.387,0-17.067-7.68-17.067-17.067v-34.133c0,0,42.667-34.133,128-34.133S379.053,191.274,379.053,191.274"/>
</g>
<path style="fill:#51565F;" d="M499.52,503.74c-1.707,0-3.413-0.853-4.267-2.56l-8.533-25.6
	c-9.387-28.16-29.013-57.173-106.667-57.173c-2.56,0-4.267-1.707-4.267-4.267s1.707-4.267,4.267-4.267
	c83.627,0,104.96,33.28,115.2,62.293l8.533,25.6c0.853,2.56-0.853,4.267-2.56,5.12C500.373,503.74,500.373,503.74,499.52,503.74z
	 M4.587,503.74c-0.853,0-0.853,0-1.707,0c-2.56-0.853-3.413-3.413-2.56-5.12l8.533-25.6c7.68-23.04,34.133-62.293,123.733-62.293
	c2.56,0,4.267,1.707,4.267,4.267c0,2.56-1.707,4.267-4.267,4.267c-83.627,0-108.373,35.84-115.2,57.173l-8.533,25.6
	C8,502.887,6.293,503.74,4.587,503.74z M414.187,503.74c-2.56,0-4.267-1.707-4.267-4.267v-12.8h-42.667v12.8
	c0,2.56-1.707,4.267-4.267,4.267c-2.56,0-4.267-1.707-4.267-4.267v-17.067c0-2.56,1.707-4.267,4.267-4.267h51.2
	c2.56,0,4.267,1.707,4.267,4.267v17.067C418.453,502.033,416.747,503.74,414.187,503.74z M252.053,503.74
	c-2.56,0-4.267-1.707-4.267-4.267V455.1l-28.16,13.653c-1.707,0.853-3.413,0.853-4.267-0.853l-59.733-51.2
	c-0.853-0.853-1.707-2.56-1.707-3.413c0-1.707,0.853-2.56,2.56-3.413l34.133-17.067c1.707-0.853,3.413-0.853,4.267,0.853
	l57.173,48.64l57.173-48.64c1.707-0.853,3.413-1.707,4.267-0.853l34.133,17.067c0.853,0.853,2.56,1.707,2.56,3.413
	c0,1.707,0,2.56-1.707,3.413l-59.733,51.2c-1.707,0.853-3.413,1.707-4.267,0.853L256.32,455.1v44.373
	C256.32,502.033,254.613,503.74,252.053,503.74z M259.733,447.42l25.6,12.8l52.907-45.227l-25.6-12.8L259.733,447.42z
	 M165.867,414.994l52.907,45.227l25.6-12.8l-52.907-45.227L165.867,414.994z M141.12,503.74c-2.56,0-4.267-1.707-4.267-4.267v-12.8
	H94.187v12.8c0,2.56-1.707,4.267-4.267,4.267s-4.267-1.707-4.267-4.267v-17.067c0-2.56,1.707-4.267,4.267-4.267h51.2
	c2.56,0,4.267,1.707,4.267,4.267v17.067C145.387,502.033,143.68,503.74,141.12,503.74z M38.72,401.34
	c-2.56,0-4.267-1.707-4.267-4.267V311.74c0-5.973,4.267-11.947,9.387-19.627c3.413-5.12,7.68-11.947,7.68-14.507v-51.2
	c0-2.56,1.707-4.267,4.267-4.267s4.267,1.707,4.267,4.267v51.2c0,5.973-4.267,11.947-9.387,19.627
	c-3.413,5.12-7.68,11.947-7.68,14.507v85.333C42.987,399.633,41.28,401.34,38.72,401.34z M252.053,384.274
	c-59.733,0-76.8-26.453-87.893-42.667l-1.707-1.707c-15.36-23.04-23.893-77.653-25.6-92.16c-10.24-1.707-17.92-10.24-17.92-21.333
	c0-2.56,1.707-4.267,4.267-4.267c2.56,0,4.267,1.707,4.267,4.267c0,6.827,5.973,12.8,12.8,12.8c2.56,0,4.267,1.707,4.267,3.413
	c0,0.853,8.533,67.413,24.747,92.16l1.707,1.707c10.24,15.36,25.6,38.4,80.213,38.4s69.973-23.04,80.213-38.4l1.707-1.707
	c16.213-24.747,24.747-91.307,24.747-92.16c0-2.56,1.707-3.413,4.267-3.413c6.827,0,12.8-5.973,12.8-12.8
	c0-2.56,1.707-4.267,4.267-4.267s4.267,1.707,4.267,4.267c0,10.24-7.68,19.627-17.92,21.333c-1.707,14.507-10.24,69.12-25.6,92.16
	l-1.707,1.707C328.853,357.82,311.787,384.274,252.053,384.274z M72.853,384.274c-2.56,0-4.267-1.707-4.267-4.267V311.74
	c0-2.56,1.707-4.267,4.267-4.267c2.56,0,4.267,1.707,4.267,4.267v68.267C77.12,382.567,75.413,384.274,72.853,384.274z
	 M269.12,333.074h-34.133c-2.56,0-4.267-1.707-4.267-4.267s1.707-4.267,4.267-4.267h34.133c2.56,0,4.267,1.707,4.267,4.267
	S271.68,333.074,269.12,333.074z M294.72,239.207c-2.56,0-4.267-1.707-4.267-4.267v-4.267h-12.8c-2.56,0-4.267-1.707-4.267-4.267
	c0-2.56,1.707-4.267,4.267-4.267h34.133c2.56,0,4.267,1.707,4.267,4.267c0,2.56-1.707,4.267-4.267,4.267h-12.8v4.267
	C298.987,237.5,297.28,239.207,294.72,239.207z M209.387,239.207c-2.56,0-4.267-1.707-4.267-4.267v-4.267h-12.8
	c-2.56,0-4.267-1.707-4.267-4.267c0-2.56,1.707-4.267,4.267-4.267h34.133c2.56,0,4.267,1.707,4.267,4.267
	c0,2.56-1.707,4.267-4.267,4.267h-12.8v4.267C213.653,237.5,211.947,239.207,209.387,239.207z M414.187,196.54h-34.133
	c-0.853,0-1.707,0-2.56-0.853c0,0-42.667-33.28-125.44-33.28s-124.587,33.28-125.44,33.28c-0.853,0.853-1.707,0.853-2.56,0.853
	h-33.28c-2.56,0-4.267-1.707-4.267-4.267V168.38c0-0.853-0.853-0.853-0.853-1.707c0-92.16,74.24-166.4,166.4-166.4
	s166.4,74.24,166.4,166.4v25.6C418.453,194.833,416.747,196.54,414.187,196.54z M381.76,188.007h28.16v-21.333
	c0-87.04-70.827-157.867-157.867-157.867c-86.187,0-157.013,69.973-157.867,156.16c0,0.853,0,0.853,0,1.707v21.333h28.16
	c7.68-5.973,50.347-34.133,129.707-34.133S374.08,182.033,381.76,188.007z M269.12,122.3c-0.853,0-0.853,0-1.707,0l-15.36-6.827
	l-15.36,6.827c-1.707,0.853-3.413,0-4.267-0.853c-0.853-0.853-1.707-2.56-0.853-4.267l5.12-14.507l-11.947-9.387
	c-1.707-0.853-1.707-3.413-1.707-5.12s2.56-2.56,4.267-2.56h14.507l7.68-14.507c1.707-2.56,5.973-2.56,7.68,0l7.68,14.507h14.507
	c1.707,0,3.413,0.853,4.267,2.56c0.853,1.707,0,3.413-1.707,5.12l-11.947,9.387l5.12,13.653c0.853,1.707,0,3.413-0.853,4.267
	C271.68,121.447,269.973,122.3,269.12,122.3z M252.053,106.087c0.853,0,0.853,0,1.707,0l7.68,3.413l-2.56-7.68
	c-0.853-1.707,0-3.413,1.707-5.12l4.267-3.413h-5.12c-1.707,0-3.413-0.853-3.413-2.56l-5.12-9.387l-5.12,9.387
	c-0.853,1.707-2.56,2.56-3.413,2.56H238.4l4.267,3.413c1.707,0.853,2.56,3.413,1.707,5.12l-2.56,7.68l7.68-3.413
	C251.2,106.087,252.053,106.087,252.053,106.087z"/>
<g>
</g>
<g>
</g>
<g>
</g>
<g>
</g>
<g>
</g>
<g>
</g>
<g>
</g>
<g>
</g>
<g>
</g>
<g>
</g>
<g>
</g>
<g>
</g>
<g>
</g>
<g>
</g>
<g>
</g>
</svg>
