<?xml version="1.0" encoding="iso-8859-1"?>
<!-- Generator: Adobe Illustrator 19.0.0, SVG Export Plug-In . SVG Version: 6.00 Build 0)  -->
<svg xmlns="http://www.w3.org/2000/svg" xmlns:xlink="http://www.w3.org/1999/xlink" version="1.1" id="Capa_1" x="0px" y="0px" viewBox="0 0 488.867 488.867" style="enable-background:new 0 0 488.867 488.867;" xml:space="preserve" width="512px" height="512px">
<path id="XMLID_503_" d="M147.523,297.127c-15.64,0-28.364,12.724-28.364,28.363s12.724,28.364,28.364,28.364  c15.641,0,28.365-12.725,28.365-28.364S163.164,297.127,147.523,297.127z M147.523,335.855c-5.714,0-10.364-4.649-10.364-10.364  c0-5.714,4.649-10.363,10.364-10.363c5.715,0,10.365,4.649,10.365,10.363C157.888,331.205,153.239,335.855,147.523,335.855z   M221.944,297.322c2.271-4.421,7.697-6.166,12.119-3.892l10.372,5.33l10.372-5.33c4.423-2.275,9.847-0.53,12.119,3.892  c2.271,4.421,0.53,9.847-3.892,12.118l-14.385,7.393c-0.184,0.097-0.369,0.188-0.559,0.271c-1.182,0.526-2.423,0.777-3.648,0.777  c-0.005,0-0.01,0-0.015,0c-1.201,0-2.417-0.241-3.577-0.746c-0.218-0.094-0.432-0.197-0.641-0.309l-14.375-7.387  C221.414,307.168,219.672,301.742,221.944,297.322z M383.683,151.086l14.694,4.812c4.719,1.547,9.807-1.027,11.354-5.752  c1.547-4.724-1.028-9.807-5.752-11.354l-37.306-12.218c-0.108-0.038-0.218-0.074-0.327-0.107l-24.546-8.038l12.143-37.081  c9.784-29.877-6.564-62.146-36.442-71.931L297.417,2.84c-14.422-4.724-29.867-3.525-43.486,3.374  c-13.62,6.899-23.722,18.643-28.445,33.065l-12.144,37.079l-62.187-20.365c-4.727-1.549-9.807,1.027-11.354,5.752  c-1.547,4.724,1.028,9.807,5.752,11.354l21.245,6.958c-23.966,16.068-44.541,39.359-60.199,68.338  c-19.676,36.416-30.077,79.244-30.077,123.856c0,57.423,17.188,111.503,48.397,152.277c31.756,41.489,74.2,64.339,119.513,64.339  c45.314,0,87.758-22.85,119.514-64.339c31.209-40.774,48.396-94.854,48.396-152.277  C412.344,228.837,402.278,186.678,383.683,151.086z M262.065,22.271c9.332-4.727,19.896-5.551,29.751-2.325l20.082,6.577  c18.702,6.125,29.657,25.122,26.268,43.964l-93.533-30.632C248.328,32.303,254.377,26.165,262.065,22.271z M238.674,56.845  l94.245,30.864l-8.226,25.117l-94.245-30.865L238.674,56.845z M244.433,470.867c-82.661,0-149.91-89.099-149.91-198.616  c0-81.252,38.013-154.927,94.943-184.771l137.903,45.162c0.091,0.033,0.182,0.064,0.274,0.095c0.092,0.03,0.185,0.059,0.276,0.086  l30.011,9.828c23.5,36.064,36.413,81.951,36.413,129.6C394.344,381.769,327.094,470.867,244.433,470.867z M319.824,215.269v2.146  c0,4.971-4.029,9-9,9s-9-4.029-9-9v-2.146c0-4.971,4.029-9,9-9S319.824,210.298,319.824,215.269z M178.044,206.269  c4.971,0,9,4.029,9,9v2.146c0,4.971-4.029,9-9,9s-9-4.029-9-9v-2.146C169.044,210.298,173.073,206.269,178.044,206.269z   M318.691,280.461l33.224-59.746c1.513-2.72,1.513-6.028,0-8.748l-33.223-59.747c-1.588-2.855-4.599-4.626-7.866-4.626  c-3.267,0-6.277,1.771-7.865,4.626l-33.226,59.747c-1.513,2.72-1.513,6.028,0,8.748l33.226,59.746  c1.588,2.855,4.599,4.626,7.865,4.626C314.093,285.087,317.104,283.317,318.691,280.461z M287.898,216.341l22.928-41.229  l22.926,41.229l-22.926,41.228L287.898,216.341z M261.071,360.306c-6.04,0-11.857,1.96-16.637,5.415  c-4.779-3.455-10.598-5.415-16.637-5.415c-15.64,0-28.364,12.724-28.364,28.363c0,11.457,6.916,21.418,16.792,25.875  c-0.103,0.981-0.155,1.97-0.155,2.961c0,15.64,12.724,28.363,28.364,28.363c15.64,0,28.364-12.724,28.364-28.363  c0-0.99-0.052-1.979-0.155-2.961c9.877-4.457,16.794-14.418,16.794-25.875C289.437,373.03,276.712,360.306,261.071,360.306z   M261.208,399.03c-3.176,0.041-6.095,1.753-7.681,4.505c-1.587,2.751-1.604,6.135-0.049,8.904c0.876,1.557,1.319,3.262,1.319,5.065  c0,5.714-4.649,10.363-10.364,10.363s-10.364-4.649-10.364-10.363c0-1.804,0.444-3.509,1.319-5.066  c1.556-2.77,1.537-6.153-0.049-8.904c-1.586-2.751-4.505-4.463-7.681-4.504c-5.639-0.073-10.227-4.721-10.227-10.361  c0-5.714,4.649-10.363,10.364-10.363c3.685,0,7.016,1.894,8.91,5.065c1.624,2.72,4.559,4.386,7.728,4.386  c3.169,0,6.104-1.666,7.728-4.387c1.893-3.171,5.223-5.064,8.908-5.064c5.716,0,10.366,4.649,10.366,10.363  C271.437,394.31,266.848,398.957,261.208,399.03z M219.133,211.967L185.91,152.22c-1.588-2.855-4.598-4.626-7.866-4.626  c-3.267,0-6.278,1.771-7.866,4.626l-33.225,59.747c-1.512,2.72-1.512,6.028,0,8.748l33.225,59.746  c1.588,2.855,4.599,4.626,7.866,4.626c3.268,0,6.278-1.771,7.866-4.626l33.223-59.746  C220.645,217.995,220.645,214.687,219.133,211.967z M178.044,257.569l-22.927-41.228l22.927-41.229l22.926,41.229L178.044,257.569z   M341.346,297.127c-15.64,0-28.364,12.724-28.364,28.363s12.725,28.364,28.364,28.364s28.364-12.725,28.364-28.364  S356.986,297.127,341.346,297.127z M341.346,335.855c-5.715,0-10.364-4.649-10.364-10.364c0-5.714,4.649-10.363,10.364-10.363  s10.364,4.649,10.364,10.363C351.71,331.205,347.061,335.855,341.346,335.855z" fill="#8C00FF"/>
<g>
</g>
<g>
</g>
<g>
</g>
<g>
</g>
<g>
</g>
<g>
</g>
<g>
</g>
<g>
</g>
<g>
</g>
<g>
</g>
<g>
</g>
<g>
</g>
<g>
</g>
<g>
</g>
<g>
</g>
</svg>
