<?xml version="1.0" encoding="iso-8859-1"?>
<!-- Generator: Adobe Illustrator 17.1.0, SVG Export Plug-In . SVG Version: 6.00 Build 0)  -->
<!DOCTYPE svg PUBLIC "-//W3C//DTD SVG 1.1//EN" "http://www.w3.org/Graphics/SVG/1.1/DTD/svg11.dtd">
<svg xmlns="http://www.w3.org/2000/svg" xmlns:xlink="http://www.w3.org/1999/xlink" version="1.1" id="Capa_1" x="0px" y="0px" viewBox="0 0 196 196" style="enable-background:new 0 0 196 196;" xml:space="preserve" width="512px" height="512px">
<path d="M191.696,106.36L191.696,106.36l-11.812,0.176c0.996-1.567,1.582-3.42,1.582-5.411c0-5.583-4.542-10.125-10.125-10.125  s-10.125,4.542-10.125,10.125c0,2.096,0.641,4.045,1.736,5.663l-9.325,0.139c1.155-1.645,1.839-3.643,1.839-5.801  c0-5.583-4.542-10.125-10.125-10.125s-10.125,4.542-10.125,10.125c0,2.267,0.758,4.355,2.022,6.045l-5.581,0.083  c-5.049-12.623-15.868-23.091-25.205-26.802c-0.029-2.341-0.122-4.903-0.268-7.524c4.51-0.094,9.363-0.275,13.513-0.515  c12.02-0.695,12.02-1.342,12.02-2.412s0-1.717-12.02-2.412c-4.275-0.248-9.297-0.432-13.921-0.523  c-0.147-1.739-0.314-3.434-0.498-5.024c-1.308-11.302-2.755-13.29-5.312-13.29s-4.004,1.988-5.312,13.29  c-0.184,1.59-0.351,3.285-0.498,5.024c-4.623,0.091-9.646,0.276-13.921,0.523c-12.02,0.695-12.02,1.342-12.02,2.412  s0,1.717,12.02,2.412c4.149,0.24,9.003,0.421,13.513,0.515c-0.146,2.612-0.238,5.167-0.268,7.503  c-9.134,3.739-20.157,14.427-25.403,26.879l-5.674-0.084c1.288-1.699,2.062-3.808,2.062-6.099C64.466,95.542,59.924,91,54.341,91  s-10.125,4.542-10.125,10.125c0,2.183,0.701,4.202,1.881,5.857l-9.408-0.14c1.119-1.628,1.777-3.597,1.777-5.717  C38.466,95.542,33.924,91,28.341,91s-10.125,4.542-10.125,10.125c0,2.014,0.598,3.888,1.616,5.467L4.239,106.36  c-2.417,0-4.239,1.922-4.239,4.471v7.897c0,2.447,1.515,4.426,3.682,4.811l64.207,11.443c5.535,10.5,18.328,12.268,31.882,12.268  c13.842,0,26.882-1.854,32.217-12.959l60.33-10.751c2.168-0.386,3.683-2.364,3.683-4.812v-7.897  C196,108.282,194.178,106.36,191.696,106.36z M28.341,106.25c-2.826,0-5.125-2.299-5.125-5.125S25.515,96,28.341,96  s5.125,2.299,5.125,5.125S31.167,106.25,28.341,106.25z M54.341,106.25c-2.826,0-5.125-2.299-5.125-5.125S51.515,96,54.341,96  s5.125,2.299,5.125,5.125S57.167,106.25,54.341,106.25z M99.771,129.524c-14.547,0-26.339-2.49-26.339-19.077  c0-0.935,0.056-1.867,0.164-2.795c0.13-1.114,1.363-0.937,1.889,0.083c3.985,7.736,13.356,9.146,24.286,9.146  c10.915,0,20.274-1.407,24.269-9.116c0.543-1.047,1.859-0.839,1.975,0.51c0.063,0.722,0.095,1.446,0.095,2.171  C126.11,127.034,114.318,129.524,99.771,129.524z M145.341,106.25c-2.826,0-5.125-2.299-5.125-5.125S142.515,96,145.341,96  s5.125,2.299,5.125,5.125S148.167,106.25,145.341,106.25z M171.341,106.25c-2.826,0-5.125-2.299-5.125-5.125S168.515,96,171.341,96  s5.125,2.299,5.125,5.125S174.167,106.25,171.341,106.25z" fill="#006DF0"/>
<g>
</g>
<g>
</g>
<g>
</g>
<g>
</g>
<g>
</g>
<g>
</g>
<g>
</g>
<g>
</g>
<g>
</g>
<g>
</g>
<g>
</g>
<g>
</g>
<g>
</g>
<g>
</g>
<g>
</g>
</svg>
